<?xml version="1.0" encoding="UTF-8"?>
<svg width="1500" height="500" version="1.1" viewBox="0 0 396.875 132.29166" xmlns="http://www.w3.org/2000/svg">
<g transform="translate(94.275 -45.959)">
<rect x="-42.122" y="98.112" width="292.57" height="27.985" fill="#864a05" stroke="#864a05" stroke-width="104.31"/>
<g transform="translate(9.9283 -1.6638)" stroke="#fff">
<path d="m37.295 88.669c1.2115-2.0191 4.0383-4.4421 6.0574-4.4421l44.421 25.037c0.80766 0.80766 2.8268 6.0574 1.2115 8.0766l-44.017 25.845c-1.2115 0.40383-6.4613 0-8.0766-4.0383z" fill="#fff" fill-rule="evenodd" stroke-linecap="round" stroke-linejoin="round" stroke-width=".32306"/>
<path d="m86.848 113.77c2.3115-2e-3 3.2554 1.6328 2.0978 3.6335l-12.824 22.163c-1.1576 2.0006-3.9958 3.6393-6.3073 3.6415l-25.606 0.0245c-2.3114 2e-3 -3.2554-1.6329-2.0978-3.6335l12.824-22.163c1.1576-2.0007 3.9959-3.6393 6.3073-3.6415z" fill="#864a05" stroke-width=".40261"/>
<path d="m41.432 87.909c-1.1576-2.0007-0.21364-3.6357 2.0978-3.6335l25.606 0.02445c2.3114 0.0022 5.1496 1.6408 6.3073 3.6415l12.824 22.163c1.1576 2.0006 0.2136 3.6357-2.0978 3.6335l-25.606-0.0245c-2.3115-2e-3 -5.1497-1.6409-6.3073-3.6416z" fill="#864a05" stroke-width=".40261"/>
<path d="m41.669 140.11c-1.1538 2.0029-3.0418 2.0029-4.1956-3e-5l-12.782-22.188c-1.1538-2.0028-1.1538-5.2801 0-7.283l12.782-22.188c1.1538-2.0028 3.0418-2.0028 4.1956-2.6e-5l12.782 22.188c1.1538 2.0029 1.1538 5.2802 0 7.2831z" fill="#864a05" stroke-width=".40261"/>
<circle transform="matrix(.49917 -.8665 .49917 .8665 0 0)" cx="-26.309" cy="105.58" r="3.5319" fill="#fff" stroke-width=".30919"/>
<ellipse transform="matrix(-1 .00095444 .50083 -.86555 0 0)" cx="-149.94" cy="-138.63" rx="3.5319" ry="3.5319" fill="#fff" stroke-width=".30919"/>
<ellipse transform="matrix(-1 .00095444 .50083 -.86555 0 0)" cx="-129.97" cy="-138.63" rx="3.5319" ry="3.5319" fill="#fff" stroke-width=".30919"/>
<circle transform="matrix(-1 .00095444 .50083 -.86555 0 0)" cx="-129.97" cy="-158.6" r="3.5319" fill="#fff" stroke-width=".30919"/>
<ellipse transform="matrix(-1 .00095444 .50083 -.86555 0 0)" cx="-139.96" cy="-148.61" rx="3.5319" ry="3.5319" fill="#fff" stroke-width=".30919"/>
<ellipse transform="matrix(-1 .00095444 .50083 -.86555 0 0)" cx="-149.94" cy="-158.6" rx="3.532" ry="3.532" fill="#fff" stroke-width=".30919"/>
<path d="m59.497 109.45c-0.29574-0.37905-2.194-3.6368-2.22-3.8099-0.0093-0.0617-0.22444-0.46117-0.47816-0.88777-0.59187-0.99513-1.0859-2.0644-1.0527-2.2785 0.01426-0.0921 0.61602-0.31094 1.3373-0.48636 2.2157-0.53892 3.0537-0.95403 3.153-1.5619 0.04735-0.28975 0.22526-0.59172 0.39534-0.67106 0.27024-0.12605 0.26089-0.20625-0.07414-0.63566-0.21087-0.27028-0.56011-0.60995-0.77607-0.75484-0.21596-0.14489-0.64894-0.53387-0.96217-0.8644-0.31324-0.33054-0.76893-0.70848-1.0127-0.83988-0.24374-0.1314-0.49013-0.29911-0.54753-0.37267-0.05739-0.07356-0.38488-0.31664-0.72774-0.54017-0.53176-0.34668-0.7663-0.58637-1.5955-1.6306-1.6021-2.0174-2.146-2.9405-2.2342-3.7916-0.1245-1.2018 0.7964-2.0341 2.2547-2.038 0.56984-0.0015 0.86042 0.06345 1.2726 0.28442 0.31126 0.16688 0.8658 0.33225 1.3289 0.39632 0.92138 0.12746 2.0601 0.63952 2.9578 1.33 0.4513 0.34716 0.8522 0.78714 1.6574 1.8189 0.59542 0.76303 1.1502 1.3973 1.2626 1.4435 0.5453 0.22444 1.4098 1.7752 1.3917 2.4962-0.0069 0.27114 0.07102 0.60167 0.17304 0.73452 0.10199 0.13284 0.26867 0.50351 0.37039 0.82371 0.33779 1.0634 1.3282 2.1159 2.2128 2.3514 0.16483 0.0439 0.72513 0.35028 1.2451 0.68085 0.51998 0.33056 1.125 0.63498 1.3446 0.67649 0.21959 0.0415 1.2919 0.34003 2.383 0.66339 1.0911 0.32336 2.0247 0.58793 2.0746 0.58793 0.04998 0 0.48516 0.16526 0.96713 0.36726 0.86126 0.36097 1.5326 0.8428 1.9886 1.4273 0.12261 0.15715 0.53535 0.52378 0.91719 0.81475 0.6145 0.46826 1.4847 1.3662 3.9099 4.0347l0.51584 0.56758h-23.17l-0.2622-0.33607z" fill="#fff" stroke-width=".54298"/>
</g>
<text transform="matrix(1.4509 0 .53772 .68921 0 0)" x="-40.934826" y="151.37569" fill="#000000" font-family="Arial" font-size="13.256px" stroke-linecap="null" stroke-linejoin="null" stroke-width="0" text-anchor="middle" xml:space="preserve"/>
<text transform="matrix(1.3651 0 .57153 .73254 0 0)" x="-41.871902" y="145.04993" fill="#000000" font-family="Arial" font-size="12.059px" stroke-linecap="null" stroke-linejoin="null" stroke-width="0" text-anchor="middle" xml:space="preserve"/>
<text transform="matrix(1.0389 0 .75097 .96253 0 0)" x="-58.449688" y="104.54063" fill="#000000" font-family="Arial" font-size="2.1964px" stroke-linecap="null" stroke-linejoin="null" stroke-width="0" text-anchor="middle" xml:space="preserve"/>
<g transform="translate(72.858 .31324)">
<path d="m142.89 86.057v56.364l10.02-4.716v-56.543z" fill="#f8941c"/>
<path d="m177.59 102.59 1.3831 14.361-19.378-4.216" fill="#bcbec0"/>
<path d="m122.85 120.97c0-7.1 7.7366-13.079 18.282-14.904v-6.3644c-16.129 1.9496-28.302 10.73-28.302 21.269 0 10.919 13.065 19.949 30.061 21.452v-6.2817c-11.434-1.4335-20.04-7.6805-20.04-15.17m31.82-21.266v6.3619c4.1956 0.72615 7.9488 2.1064 10.944 3.958l7.0852-4.3788c-4.8285-2.9845-11.06-5.0987-18.03-5.941" fill="#bcbec0"/>
<path d="m142.89 86.057v56.364l10.02-4.716v-56.543z" fill="#fff"/>
<path d="m177.59 102.59 1.3831 14.361-19.378-4.216" fill="#fff"/>
<path d="m122.85 120.97c0-7.1 7.7366-13.079 18.282-14.904v-6.3644c-16.129 1.9496-28.302 10.73-28.302 21.269 0 10.919 13.065 19.949 30.061 21.452v-6.2817c-11.434-1.4335-20.04-7.6805-20.04-15.17m31.82-21.266v6.3619c4.1956 0.72615 7.9488 2.1064 10.944 3.958l7.0852-4.3788c-4.8285-2.9845-11.06-5.0987-18.03-5.941" fill="#fff"/>
</g>
<text x="122.28761" y="128.02951" fill="#ffffff" font-family="sans-serif" font-size="50.8px" font-weight="bold" letter-spacing="0px" stroke-width=".26458" word-spacing="0px" style="font-feature-settings:normal;font-variant-caps:normal;font-variant-ligatures:normal;font-variant-numeric:normal;line-height:1.25" xml:space="preserve"><tspan x="122.28761" y="128.02951" fill="#ffffff" font-family="sans-serif" font-size="50.8px" font-weight="bold" stroke-width=".26458" style="font-feature-settings:normal;font-variant-caps:normal;font-variant-ligatures:normal;font-variant-numeric:normal">+</tspan></text>
</g>
</svg>
