<?xml version="1.0" encoding="UTF-8"?>
<svg width="512" height="512" version="1.1" viewBox="0 0 135.46667 135.46667" xmlns="http://www.w3.org/2000/svg">
<g transform="matrix(-.23181 -.44521 .44521 -.23181 -59.644 62.654)" fill="#f7931e" stroke="#f7931e">
<path d="m-126.95 72.438a12.77 11.941 0 0 0 -12.771 11.941 12.77 11.941 0 0 0 12.771 11.941 12.77 11.941 0 0 0 12.77 -11.941 12.77 11.941 0 0 0 -12.77 -11.941zm-1.3617 33.734-10.676 5.4183c-6.2679 0.63742-11.474 1.5402-15.617 2.7088-8.9238 2.4434-16.254 6.7994-21.991 13.067-6.2679 6.7992-9.4018 14.607-9.4018 23.425 0 3.5057 0.90285 7.8083 2.7088 12.908l11.952-7.1706c-1.5935-4.5682-2.39-8.552-2.39-11.952 0-16.785 10.305-26.24 30.914-28.366-4.6743 21.778-11.261 48.124-19.76 79.038h-22.787l-6.5338 6.5333h31.392c14.767 0 24.7-1.0621 29.8-3.1869 2.2309-0.95611 4.568-2.0188 7.0114-3.1874l0.31884-1.434c-9.1362 0.84988-18.06 1.2748-26.77 1.2748 4.143-17.741 6.6394-28.26 7.4895-31.551 12.429-0.84988 23.053-4.196 31.871-10.039 10.517-6.9053 15.776-16.095 15.776-27.569 0-6.7992-3.6118-11.421-10.836-13.864-4.3558-1.4873-10.783-2.2308-19.282-2.2308-1.806 0-3.1871 0.0534-4.1433 0.15968l0.956-3.9843zm3.9843 8.4459c10.305 0 15.457 4.7275 15.457 14.183 0 8.18-2.3905 15.032-7.1712 20.557-4.9932 5.843-11.473 8.7642-19.441 8.7642-1.1686 0-3.0276-0.21222-5.5774-0.63716l10.517-42.547c2.3372-0.21248 4.409-0.31885 6.215-0.31885z" fill="#f7931e" stroke="#f7931e" stroke-width="2.9448"/>
</g>
<g transform="matrix(-.22549 .44844 -.44844 -.22549 195.93 82.659)" stroke="#000" stroke-width="1.1058">
<path transform="matrix(.26458 0 0 .26458 52.893 66.661)" d="m314.51 11.852a48.267 45.133 0 0 0 -48.268 45.131 48.267 45.133 0 0 0 48.268 45.133 48.267 45.133 0 0 0 48.266 -45.133 48.267 45.133 0 0 0 -48.266 -45.131zm-5.1465 127.5-40.352 20.479c-23.69 2.4092-43.366 5.8215-59.025 10.238-33.728 9.2351-61.433 25.699-83.115 49.389-23.69 25.698-35.535 55.209-35.535 88.535 0 13.25 3.4124 29.512 10.238 48.785l45.172-27.102c-6.0229-17.266-9.0332-32.323-9.0332-45.172 0-63.441 38.948-99.177 116.84-107.21-17.667 82.313-42.562 181.89-74.684 298.73h-86.127l-24.695 24.693h118.65c55.812 0 93.356-4.0144 112.63-12.045 8.432-3.6137 17.265-7.6301 26.5-12.047l1.2051-5.4199c-34.531 3.2122-68.259 4.8184-101.18 4.8184 15.659-67.055 25.094-106.81 28.307-119.25 46.978-3.2122 87.13-15.859 120.46-37.943 39.751-26.099 59.627-60.831 59.627-104.2 0-25.698-13.651-43.165-40.955-52.4-16.463-5.6214-40.755-8.4316-72.877-8.4316-6.8259 0-12.046 0.202-15.66 0.60352l3.6133-15.059zm15.059 31.922c38.948 0 58.422 17.868 58.422 53.604 0 30.917-9.0349 56.816-27.104 77.695-18.872 22.084-43.364 33.125-73.479 33.125-4.4168 0-11.443-0.8021-21.08-2.4082l39.75-160.81c8.8336-0.80305 16.664-1.2051 23.49-1.2051z" stroke="#000" stroke-width="4.1796"/>
</g>
<path d="m88.772 4.3354a6.4101 5.9939 0 0 0 -6.4102 5.9936 6.4101 5.9939 0 0 0 6.4102 5.9939 6.4101 5.9939 0 0 0 6.41 -5.9939 6.4101 5.9939 0 0 0 -6.41 -5.9936zm-0.68348 16.933-5.3589 2.7197c-3.1461 0.31995-5.7592 0.77312-7.8388 1.3597-4.4792 1.2265-8.1586 3.413-11.038 6.5591-3.1461 3.4128-4.7192 7.332-4.7192 11.758 0 1.7597 0.45318 3.9193 1.3597 6.4789l5.9991-3.5993c-0.79987-2.293-1.1997-4.2926-1.1997-5.9991 0-8.4253 5.1725-13.171 15.517-14.238-2.3463 10.932-5.6524 24.156-9.9184 39.673h-11.438l-3.2796 3.2793h15.757c7.4121 0 12.398-0.53313 14.958-1.5996 1.1198-0.47992 2.2929-1.0133 3.5193-1.5999l0.16004-0.71979c-4.5859 0.4266-9.0651 0.63991-13.437 0.63991 2.0796-8.9052 3.3326-14.185 3.7593-15.837 6.2389-0.4266 11.571-2.1062 15.998-5.039 5.2791-3.4661 7.9187-8.0786 7.9187-13.838 0-3.4128-1.8129-5.7325-5.439-6.959-2.1864-0.74655-5.4125-1.1198-9.6784-1.1198-0.90651 0-1.5998 0.02683-2.0797 0.08015l0.47986-1.9999zm1.9999 4.2394c5.1725 0 7.7587 2.373 7.7587 7.1189 0 4.1059-1.1999 7.5454-3.5995 10.318-2.5063 2.9329-5.7589 4.3992-9.7584 4.3992-0.58657 0-1.5197-0.10652-2.7995-0.31982l5.279-21.356c1.1731-0.10665 2.2131-0.16004 3.1196-0.16004z" fill="#c0c0c0" stroke="#c0c0c0" stroke-width="1.4781"/>
</svg>
