<?xml version="1.0" encoding="UTF-8"?>
<svg width="512" height="512" version="1.1" viewBox="0 0 135.46667 135.46667" xmlns="http://www.w3.org/2000/svg">
<g transform="translate(-52.893 -66.661)" fill="#f7931e" stroke="#864a05">
<path transform="matrix(.26458 0 0 .26458 52.893 66.661)" d="m314.51 11.852a48.267 45.133 0 0 0 -48.268 45.131 48.267 45.133 0 0 0 48.268 45.133 48.267 45.133 0 0 0 48.266 -45.133 48.267 45.133 0 0 0 -48.266 -45.131zm-5.1465 127.5l-40.352 20.479c-23.69 2.4092-43.366 5.8215-59.025 10.238-33.728 9.2351-61.433 25.699-83.115 49.389-23.69 25.698-35.535 55.209-35.535 88.535 0 13.25 3.4124 29.512 10.238 48.785l45.172-27.102c-6.0229-17.266-9.0332-32.323-9.0332-45.172 0-63.441 38.948-99.177 116.84-107.21-17.667 82.313-42.562 181.89-74.684 298.73h-86.127l-24.695 24.693h118.65c55.812 0 93.356-4.0144 112.63-12.045 8.432-3.6137 17.265-7.6301 26.5-12.047l1.2051-5.4199c-34.531 3.2122-68.259 4.8184-101.18 4.8184 15.659-67.055 25.094-106.81 28.307-119.25 46.978-3.2122 87.13-15.859 120.46-37.943 39.751-26.099 59.627-60.831 59.627-104.2 0-25.698-13.651-43.165-40.955-52.4-16.463-5.6214-40.755-8.4316-72.877-8.4316-6.8259 0-12.046 0.202-15.66 0.60352l3.6133-15.059zm15.059 31.922c38.948 0 58.422 17.868 58.422 53.604 0 30.917-9.0349 56.816-27.104 77.695-18.872 22.084-43.364 33.125-73.479 33.125-4.4168 0-11.443-0.8021-21.08-2.4082l39.75-160.81c8.8336-0.80305 16.664-1.2051 23.49-1.2051z" fill="#f7931e" stroke="#864a05" stroke-width="11.13"/>
</g>
</svg>
