<?xml version="1.0" encoding="UTF-8"?>
<svg width="512" height="512" version="1.1" viewBox="0 0 135.46667 135.46667" xmlns="http://www.w3.org/2000/svg">
<path d="m81.857 1.6855c-0.29108 0.27216-1.3765 1.0675-2.6699 1.9668-1.2934 0.89927-2.8487 1.9722-4.3633 3.1309-1.5145 1.1586-2.9893 2.3921-4.1641 3.7031-1.1748 1.3111-2.2031 2.7105-2.2031 4.5898-1.9e-5 1.7025 0.74859 3.1634 1.7266 4.6406 0.97797 1.4772 2.2667 2.9394 3.6934 4.2734 1.4267 1.334 2.9867 2.5341 4.5508 3.4395 1.5641 0.90536 3.1024 1.5723 4.7852 1.5723 1.6827-1.8e-5 3.2211-0.66689 4.7852-1.5723 1.564-0.90537 3.1241-2.1074 4.5508-3.4414s2.7135-2.7943 3.6914-4.2715c0.97792-1.4772 1.7266-2.9382 1.7266-4.6406-2.1e-5 -1.8793-1.0264-3.2788-2.2012-4.5898-1.1748-1.3111-2.6496-2.5445-4.1641-3.7031-1.5145-1.1586-3.0699-2.2316-4.3633-3.1309-1.2934-0.89926-2.3789-1.6947-2.6699-1.9668l-1.4272 0.087895zm1.3555 3.9121c0.56777 0.42087 1.0252 0.80174 1.7598 1.3125 1.3006 0.90428 2.8067 1.9451 4.2188 3.0254 1.412 1.0803 2.7301 2.2092 3.6172 3.1992 0.8871 0.99002 1.1895 1.8305 1.1895 1.9414 0 0.28771-0.31504 1.3143-1.0664 2.4492-0.75137 1.135-1.858 2.4107-3.0918 3.5645-1.2338 1.1537-2.6006 2.1926-3.8301 2.9043-1.2295 0.7117-2.3512 1.0391-2.7969 1.0391-0.4457 0-1.5674-0.32736-2.7969-1.0391-1.2295-0.7117-2.5962-1.7506-3.8301-2.9043-1.2339-1.1537-2.3404-2.4295-3.0918-3.5645-0.75141-1.135-1.0684-2.1616-1.0684-2.4492 0-0.11082 0.30427-0.95138 1.1914-1.9414 0.88713-0.99003 2.2051-2.119 3.6172-3.1992 1.4121-1.0803 2.9181-2.1211 4.2188-3.0254 0.73463-0.51075 1.192-0.89164 1.7598-1.3125zm-1.3613 31.27h-2e-3l-0.89648-1.7676c-1.075 0.54556-2.6646 1.532-4.5645 2.582s-4.056 2.1302-5.8398 2.7227c-3.9537 1.3132-9.645 0.50133-15.678 2.7305-7.0492 2.6047-17.083 6.9498-22.811 13.639-5.649 6.5968-9.2357 17.291-9.8711 24.543-0.22946 2.6182-0.14467 5.6949 0.32812 8.4043 0.2364 1.3547 0.56212 2.6143 1.0664 3.7266 0.50429 1.1123 1.1869 2.1958 2.4961 2.7676 1.4853 0.64868 2.7621 0.298 4.0879-0.12891 1.3258-0.42691 2.7097-1.1024 4.0625-1.918 2.7055-1.6312 5.2761-3.5751 6.4102-6.1387 0.60279-1.3625 0.44143-2.7741 0.10156-3.9375-0.33987-1.1634-0.858-2.2069-1.3242-3.2129-0.93243-2.012-1.5272-3.6662-1.0957-4.9883 0.46953-1.4385 2.3778-4.39 5.0156-7.5332 2.6378-3.1432 5.9955-6.6135 9.3867-9.75 3.3912-3.1365 6.8322-5.948 9.5684-7.7656 1.3681-0.90883 2.5697-1.5649 3.3945-1.8828 0.30255-0.11661 0.4447-0.12073 0.5918-0.13867 7.67e-4 0.0025 0.0012 0.0014 2e-3 0.0039 0.13345 0.43846 0.26449 1.2084 0.32812 2.1934 0.12728 1.9698 0.01811 4.8084-0.31445 8.1719-0.66512 6.7269-2.2037 15.592-4.2793 24.627-2.0755 9.0345-4.692 18.254-7.4844 25.709s-6.0194 13.184-8.1621 14.857c-2.2501 1.7568-6.0177 1.4847-10.205 0.64258-2.0937-0.42104-4.2219-0.94693-6.252-1.2461-2.03-0.29917-4.003-0.43895-5.8691 0.33398-1.959 0.81141-3.8464 2.1949-5.3262 3.6582-0.73988 0.73167-1.3717 1.4728-1.8418 2.2812-0.47009 0.80847-1.0046 1.8209-0.43945 3.1856 0.5675 1.3702 1.6244 1.6612 2.5215 1.918 0.89707 0.2568 1.9034 0.38844 3.0723 0.47656 2.3378 0.17626 5.303 0.14142 8.5508 0.0117 6.4956-0.2594 14.094-0.91199 19.188-1.1836 10.102-0.53864 23.306-1.3671 30.215-3.2539h2e-3c1.7007-0.46449 3.311-1.0139 4.6758-1.6211 1.3648-0.60721 2.4734-1.1452 3.3535-2.2305 0.31689-0.3907 0.61053-0.83298 0.78906-1.4746 0.17853-0.64163 0.16374-1.7069-0.49414-2.4883-0.6352-0.75444-1.2514-0.81336-1.7031-0.88086-0.45171-0.0675-0.85684-0.0635-1.2988-0.041-0.88398 0.045-1.9021 0.19122-3.0801 0.38868-2.3559 0.39491-5.3127 1.0061-8.3105 1.5273-2.9979 0.52123-6.0421 0.94604-8.4141 0.98242-2.372 0.0364-3.86-0.57485-3.9551-0.68945-0.42449-0.51156-0.95905-2.2683-0.94727-4.6875 0.01179-2.4192 0.44166-5.4429 1.1934-8.5391 1.5034-6.1924 4.4139-12.745 7.1699-15.707 2.5698-2.7621 8.0817-3.8108 14.213-4.6348 6.1312-0.82401 12.782-1.4478 17.451-5.209 4.1671-3.3567 8.3228-8.5099 11.471-13.869 3.148-5.3592 5.3683-10.812 5.0391-15.389-0.4888-6.7937-6.5658-12.492-11.844-15.453-3.0969-1.7375-7.0959-2.1871-10.891-2.375-3.7947-0.18791-7.4378-0.0365-9.2871-0.10742-0.81803-0.03137-1.1587-0.65505-1.7539-0.55278h2e-3zm-3.0391 4.002c0.04992 0.35833 0.13861 0.74006 0.54883 1.2402 0.46729 0.56964 1.0719 0.76899 1.5957 0.86328-0.87526 0.14258-1.7704 0.44666-2.5996 1.1309-1.0376 0.85585-1.731 1.995-2.4883 3.4414-0.7573 1.4465-1.5062 3.1989-2.248 5.1777-1.4836 3.9576-2.9291 8.8116-4.1309 13.676-0.34421 1.3932-0.45562 2.5556-0.75391 3.9277 0.64992-3.8571 1.192-7.5516 1.5078-10.746 0.34514-3.4907 0.47774-6.4745 0.32617-8.8203-0.07578-1.1729-0.21584-2.1839-0.49219-3.0918s-0.663-1.8402-1.7129-2.4648c-0.18928-0.11262-0.36139-0.05308-0.54688-0.125 1.3289-0.19329 2.6606-0.46721 3.9824-0.90625 2.224-0.73866 4.5163-1.917 6.5078-3.0176 0.2259-0.12484 0.28552-0.16237 0.50391-0.28516zm6.1504 1.8066c2.226 0.08537 5.6863-0.07267 9.2441 0.10352 3.5578 0.17618 7.1634 0.7635 9.1445 1.875 4.3919 2.4642 9.5137 7.9329 9.8262 12.275 0.20892 2.9041-1.5713 8.1045-4.502 13.094-2.9306 4.9892-6.9302 9.8801-10.539 12.787-2.136 1.7206-5.538 2.6108-9.2461 3.3086 2.5345-1.3137 4.9419-2.8099 6.6953-4.7246 2.4811-2.7092 4.7111-6.5493 6.2109-10.574 1.4999-4.0249 2.325-8.2075 1.4199-11.807-0.9818-3.9044-4.5632-6.8342-8.0313-9.4492-3.468-2.615-7.1715-4.9436-8.0078-5.7109l-1.3301-0.52148c-0.09664-0.01561-0.66849-0.23365-2.2598-0.40818-0.20448-0.01769-0.46229 0.01694-0.68164 0.0039 0.76214-0.13537 1.4736-0.27431 2.0566-0.25195zm-21.152 2.8281c-1.1605 0.49551-2.3669 1.1378-3.7148 2.0332-3.0236 2.0086-6.5634 4.9163-10.066 8.1562-3.503 3.2399-6.9545 6.8031-9.7324 10.113-2.7779 3.3102-4.8934 6.233-5.748 8.8516-0.99589 3.0515 0.30101 5.803 1.2676 7.8887 0.48328 1.0429 0.91609 1.9698 1.1172 2.6582 0.2011 0.6884 0.16965 1.0099 0.07813 1.2168v2e-3c-0.35074 0.79286-2.5397 2.9648-4.8301 4.3457-1.1452 0.69044-2.3172 1.2456-3.2285 1.5391-0.91136 0.29345-1.553 0.15256-1.2852 0.26953 0.12489 0.05455-0.17646-0.12486-0.46875-0.76953s-0.57347-1.6368-0.77148-2.7715c-0.39603-2.2695-0.48209-5.1279-0.28516-7.375 0.54411-6.2101 4.179-16.757 8.9316-22.307 4.7431-5.5389 14.363-9.9821 21.172-12.498 2.4177-0.89336 4.9665-1.1275 7.5645-1.3535zm19.436 1.375c0.55366 0.04789 1.0855 0.13964 1.4707 0.21875 0.1361 0.02795 0.22766 0.04992 0.32422 0.07227 1.8114 1.53 4.7133 3.2703 7.7559 5.5645 3.2571 2.456 6.1163 5.4349 6.5723 7.248 0.55966 2.2256 0.04092 5.8769-1.291 9.4512-1.3319 3.5742-3.4211 7.0987-5.4199 9.2812-3.6832 4.0219-14.13 7.496-18.283 8.1445-1.2182 0.19022-2.291 0.36784-2.9395 0.35547-0.64846-0.01237-0.61364-0.03727-0.70312-0.16602 0.12953 0.18638-0.19816-0.58957-0.23047-1.7793-0.03231-1.1897 0.07074-2.8141 0.29492-4.6855 0.44837-3.7429 1.3758-8.4923 2.5469-13.232 1.1711-4.7401 2.5881-9.4857 3.9941-13.236 0.70301-1.8753 1.4046-3.5036 2.0469-4.7305 0.64232-1.2268 1.2975-2.0533 1.498-2.2188 0.153-0.12624 1.256-0.38289 2.3633-0.28711zm-15.65 29.383c-0.20422 1.2378-0.60613 2.7301-0.74023 3.8496-0.23885 1.9939-0.36106 3.7652-0.32031 5.2656s0.08451 2.7074 0.93945 3.9375c0.44374 0.63845 1.0563 1.0489 1.6973 1.3438-1.1359 0.65335-2.2043 1.4057-3.1152 2.3848-1.4633 1.5727-2.7417 3.6736-3.9082 5.957 1.3606-4.6499 2.6297-9.478 3.7363-14.295 0.66447-2.8923 1.1649-5.646 1.7109-8.4434zm-10.049 36.258c-0.53224 2.6173-0.90493 5.1776-0.91602 7.4531-0.01393 2.8598 0.31149 5.3702 1.8633 7.2402 1.7015 2.0505 4.2911 2.1656 7.0684 2.123 2.4494-0.0376 5.2367-0.46348 7.9668-0.91602-6.7542 1.0029-16.322 1.6701-23.975 2.0781-5.2198 0.27831-12.78 0.92794-19.133 1.1816-3.1764 0.12685-6.0559 0.14973-8.0938-4e-3 -0.68425-0.0516-1.0798-0.14188-1.5293-0.22461 0.22152-0.28376 0.37548-0.52762 0.70898-0.85742 1.1303-1.1177 2.8014-2.2953 4.0547-2.8144 0.65624-0.27181 2.0205-0.33227 3.7715-0.0742 1.751 0.25805 3.8459 0.76831 6.0469 1.2109 4.4019 0.88524 9.5066 1.6568 13.43-1.4062 3.4004-2.6553 6.0803-8.1582 8.7363-14.99z" color="#000000" color-rendering="auto" dominant-baseline="auto" fill="#fff" image-rendering="auto" shape-rendering="auto" solid-color="#000000" stroke="#000" stroke-width=".52917" style="font-feature-settings:normal;font-variant-alternates:normal;font-variant-caps:normal;font-variant-ligatures:normal;font-variant-numeric:normal;font-variant-position:normal;isolation:auto;mix-blend-mode:normal;shape-padding:0;text-decoration-color:#000000;text-decoration-line:none;text-decoration-style:solid;text-indent:0;text-orientation:mixed;text-transform:none;white-space:normal"/>
</svg>
