<?xml version="1.0" encoding="UTF-8"?>
<svg width="512" height="512" version="1.1" viewBox="0 0 135.46667 135.46667" xmlns="http://www.w3.org/2000/svg">
<g transform="translate(-52.893 -66.661)" fill="none" stroke="#fff" stroke-width="3.9688">
<path transform="matrix(.26458 0 0 .26458 52.893 66.661)" d="m314.51 11.852c-8.0447 7.5218-48.268 30.087-48.268 45.131-1.7e-4 15.044 32.179 45.133 48.268 45.133 16.089-1.7e-4 48.266-30.089 48.266-45.133-1.7e-4 -15.044-40.222-37.609-48.266-45.131m-5.1465 127.5c-6.7253 3.4132-25.204 15.448-40.352 20.479-17.429 5.789-38.41 2.6206-59.025 10.238-26.189 9.677-63.327 26.281-83.115 49.389-19.657 22.955-33.306 63.095-35.535 88.535-1.6116 18.389 1.2856 44.875 10.238 48.785 9.203 4.0193 39.56-14.416 45.172-27.102 5.2484-11.863-14.428-28.642-9.0332-45.172 10.01-30.668 101.63-116.26 116.84-107.21 21.196 12.61-30.567 264.28-74.684 298.73-23.332 18.217-67.06-7.8973-86.127 0-12.141 5.0288-26.905 19.357-24.695 24.693 4.0738 9.8356 79.669 2.0784 118.65 0 38.087-2.0308 88.437-5.4378 112.63-12.045 12.264-3.3495 23.175-7.9471 26.5-12.047 1.4523-1.7906 2.3776-4.0273 1.2051-5.4199-5.0079-5.948-87.599 21.185-101.18 4.8184-14.939-18.003 3.9242-93.043 28.307-119.25 24.751-26.603 90.316-13.661 120.46-37.943 29.39-23.674 61.661-75.925 59.627-104.2-1.5142-21.045-22.681-42.147-40.955-52.4-19.193-10.768-57.474-7.8409-72.877-8.4316-7.119-0.27302-13.665 3.0355-15.66 0.60352-1.9828-2.4176 3.6391-15.05 3.6133-15.059-6.4e-4 -2.3e-4 -4e-3 7e-3 -4e-3 9e-3m15.059 31.922c9.737 8.934 52.988 31.994 58.422 53.604 5.5361 22.015-10.172 59.206-27.104 77.695-16.758 18.299-56.122 30.415-73.479 33.125-8.9052 1.3905-17.155 3.2391-21.08-2.4082-10.967-15.78 21.031-145.37 39.75-160.81 7.0535-5.8199 23.388-1.1701 23.49-1.2051 7.3e-4 -2.5e-4 8.3e-4 -5.8e-4 1e-3 -7e-4" fill="none" stroke="#fff" stroke-width="15"/>
</g>
</svg>
